<?xml version="1.0" encoding="utf-8"?>
<!-- Generator: Adobe Illustrator 26.5.0, SVG Export Plug-In . SVG Version: 6.00 Build 0)  -->
<svg version="1.1" id="Layer_1" xmlns="http://www.w3.org/2000/svg" xmlns:xlink="http://www.w3.org/1999/xlink" x="0px" y="0px"
	 viewBox="0 0 162 176.5" style="enable-background:new 0 0 162 176.5;" xml:space="preserve">
<style type="text/css">
	.st0{fill:#FFFFFF;}
	.st1{fill:#4D4D64;}
</style>
<g id="xBQSKa">
	<g>
		<path class="st0" d="M0,103c0-2.3,0-4.5,0-6.8c0.3-8.7,2.2-17,7-24.4c5.7-8.9,13.6-14.8,24.1-16.7c14.8-2.6,29.8,5.7,32,23.2
			c0.9,6.8-0.2,13.1-4.4,18.7c-5,6.6-13.8,9.5-21.1,6.9c-4.5-1.6-7.9-4.4-8.9-9.3c-0.9-4.2,2-8,6-7.9c2.4,0,4.5,1.5,5.5,3.7
			c1,2.4,0.5,5.1-1.1,6.8c-0.7,0.7-1.6,1.1-2.7,1.3c1.5,2.2,3.7,2.9,6,3.2c9.6,0.8,18.9-7.2,19.8-16.8c1.3-12.8-7.7-22.8-18.6-26
			c-8.3-2.4-16.2-0.8-23.6,3.4C9.5,68.5,3.4,77.9,1.8,90c-2,15.9,2.9,29.5,14.5,40.6c3.9,3.7,8.5,6.1,13.7,7.3
			c0.8,0.2,1.1,0.2,0.9-0.8c-0.3-1.2-0.3-2.4-0.5-3.6c0-0.5-0.1-1,0.2-1.6c0.8,1.5,1,3.1,1.4,4.6c0.5,1.8,0.4,1.9,2.3,1.9
			c6.9,0.3,12.9-1.9,18.1-6.4c5.9-5,9.6-11.5,12.6-18.5c1.8-4.3,3.1-8.8,4.3-13.3c0.7-2.5,1.6-4.9,2.9-7.2c0.8-1.3,1.6-2.4,2.9-3.2
			c1.8-1.1,3.5-0.9,4.8,0.7c0.8,1,1.4,2.1,2.1,3.1c1.9,2.8,4.7,2.7,6.5-0.2c1.5-2.5,1.4-5.2,1-8c-0.1-0.8-0.3-1.6-0.5-2.4
			c-0.1-0.2-0.1-0.5,0.2-0.7c0.3-0.1,0.5,0.1,0.6,0.3c0.4,0.4,0.8,0.8,1.1,1.4c2.3,5.7,3.2,11.5,2,17.6c-0.2,1-0.6,2-1.1,2.9
			c-1.5,2.6-4.5,3.6-7.2,2.3c-1.5-0.7-2.6-1.8-3.6-3.1c-0.4-0.6-0.8-1.2-1.1-1.8c-1.6-2.8-2.9-2.8-4.5,0c-1.8,3.2-2.8,6.8-4,10.3
			c-2.1,6.4-4.1,12.8-7.1,18.8c-1.8,3.7-4,7.1-6.8,10.1c-5.5,5.9-11.4,8.6-20.7,9.4c3.5,6.9,8.5,11.8,16.5,13
			c7.8,1.2,13.8-1.8,18.4-7.9c3.5-4.6,5.8-9.9,7.6-15.4c1.3-4,2.9-7.9,5.4-11.4c1-1.4,2.2-2.8,3.6-3.8c1-0.7,2.1-1.2,3.3-1.2
			c2.4-0.1,3.7,0.8,4.4,3c0.8,2.2,0.9,4.5,1.5,6.7c0.2,0.9,0.4,1.9,0.8,2.8c1.4,3.4,5.2,4.3,7.9,1.8c1-0.9,1.7-1.9,2.3-3.1
			c0.9-1.7,1.8-3.5,2.7-5.2c0.1-0.3,0.3-0.5-0.1-0.7c-4.8-2.1-5.7-6.3-5.6-10.9c0-0.4,0.1-0.8,0.2-1.2c0.8-2.6,0.9-5.3,1-8.1
			c0-4.8,2.8-8.3,6.1-11.5c1.3-1.2,1.3-1.2,0.4-2.8c-2.6-4.2-3.2-8.6-0.9-13.2c0.2-0.5,0.3-0.9,0.2-1.4c-0.9-5.9,1.9-10,6.8-12.8
			c5.7-3.3,12-5.3,18.4-6.8c2.2-0.5,4.4-0.9,6.7-0.6c2.2,0.3,3.3,1.6,3.4,3.7s-0.5,4.2-1.3,6.2c-0.9,2-1.6,4-1.9,6.3
			c-0.6,5.3-3.7,9.3-7.7,12.5c-3,2.4-6.1,4.7-9.2,7c-0.6,0.4-0.7,0.7-0.5,1.4c1.4,4.9-0.3,9.2-2.8,13.2c-0.2,0.3-0.4,0.6-0.8,0.4
			c-0.2-0.1-0.3-0.4-0.2-0.7c1.1-3.1-1-5-2.7-7c-0.2-0.2-0.4-0.4-0.6-0.6c-0.3-0.4-0.5-0.3-0.8,0c-3.6,3.1-7.1,6.3-9.9,10.2
			c-0.5,0.7-0.5,1.2,0,1.9c2.8,3.7,6.6,5.4,11,5.4c1.8,0,3.6-0.6,5.4-0.9c1.7-0.3,3.3-0.2,5.1-0.1c-0.9,3-1.8,6-2.7,8.9
			c-0.8,2.4-0.8,2.4-3.3,2.4c-7.2-0.2-11.1,2.4-13.8,9c-0.9,2.1-1.6,4.4-2.6,6.5c-0.7,1.5-1.6,2.8-2.9,3.9c-3.3,2.6-7.5,1.8-9.5-1.9
			c-1.2-2.3-1.6-4.9-2.1-7.4c-0.2-1-0.4-1.9-1-2.8c-1-1.6-2.4-2.1-4.2-1.3c-1.5,0.7-2.5,1.9-3.4,3.2c-2.4,3.4-3.7,7.3-5.2,11.2
			c-1.7,4.4-3.4,8.9-5.8,13c-1.2,2.1-2.6,4.1-4.2,5.9c-6.6,6.9-17.1,7.5-24.7,1.4c-4.5-3.7-7.4-8.6-9.6-13.8c-0.8-1.8-1.4-3.7-2-5.6
			c-0.2-0.5-0.3-0.8-0.9-0.8c-12.6-1.6-20.4-9.3-26.1-19.9c-4-7.4-6-15.4-6.8-23.7C0.1,105.6,0.1,104.3,0,103L0,103z"/>
		<path class="st0" d="M69.7,38.2c-1.5,5.7-0.5,11,2.7,15.9c2.1,3.1,4.5,6,6.6,9.1c3.9,5.7,3.5,11.5-1.1,16.7
			c-1.7,1.9-3.8,3.4-6,4.7c-0.8,0.4-1.1,0.2-1.2-0.5c-0.1-1-0.2-2,0.7-2.8c1.8-1.6,2-3.7,1.4-5.9c-0.5-1.8-1.4-3.5-2.5-5
			c-0.3-0.4-0.5-0.5-1-0.2c-1.6,1.1-2.8,0.8-3.9-0.8c-1.6-2.3-1.4-5.3,0.4-6.8c0.7-0.6,1.2-0.8,2,0c1.3,1.2,2.7,2.4,3.8,3.8
			c3.6,4.4,5.1,9.1,2,14.7c1.3-0.6,2.1-1.4,2.8-2.2c2.8-3.4,3.2-7.8,0.8-11.9c-1.4-2.5-3.2-4.8-5-7c-2.8-3.5-5.2-7.2-5.8-11.7
			c-0.6-4-0.2-7.8,1.8-11.4c0.4-0.7,0.4-1.2,0.1-1.9c-4.2-10.7-5.3-21.7-3.8-33c0.1-0.6,0-1.4,0.8-1.8c0.2,2.2,0.4,4.3,0.6,6.3
			c0.9,8.4,3.5,16.2,7.5,23.6c0.3,0.5,0.5,0.8,1.1,0.4c8.7-5,21.9-0.5,25.4,11.4c1.3,4.5,1.2,9-1.2,13.2c-0.4,0.8-1,1.5-1.8,2.3
			c0-0.9,0.4-1.5,0.5-2.2c1.2-6.1,0.9-12.1-1.7-17.8c-3.2-6.9-8.3-8.4-14.8-7.8c-2,0.2-3.8,0.8-5.6,1.7c-0.7,0.4-0.9,0.7-0.4,1.5
			c4,6.6,8.6,12.8,13.6,18.7c6.4,7.6,12.9,15.2,19.4,22.8c0.5,0.6,0.9,1.2,0.7,2c0,0,0,0.1,0,0.1c0.2,2.3-0.1,4.4-1.1,6.5
			c-0.7,1.4-0.6,3-0.7,4.5c-0.2,0.2-0.3,0-0.4-0.1C98,76.9,89.3,66.6,80.9,56c-4.2-5.3-7.8-11-10.7-17.2
			C70.1,38.7,70,38.4,69.7,38.2L69.7,38.2z"/>
		<path class="st0" d="M132.3,100.7c3,2.8,5.8,5.3,9,7.5c2.4,1.6,4.9,3.1,7.8,3.4c5.5,0.7,9.8-2.7,10.7-8.4c0.2-1.1,0.3-2.2,0.2-3.4
			c-0.1-0.5,0-1,0.5-1.1c0.5-0.2,0.9,0.2,1.1,0.6c0.2,0.3,0.4,0.6,0.4,0.9c0.1,5.4-0.2,10.7-2.5,15.6c-2.4,5.1-6.7,7.8-12,7.5
			c-2.5-0.2-4.7-1.2-6.9-2.5c-4-2.3-7.5-5.3-10.9-8.5c-0.5-0.4-0.5-0.8-0.2-1.3C131.2,107.9,132.2,104.5,132.3,100.7L132.3,100.7z"
			/>
		<path class="st0" d="M44.2,95.8c5.3-6.6,2.5-17.8-1.4-22.7c-2.7-3.4-6.2-5.3-10.6-5.1C30,68,27.8,68.3,25.7,69
			c-7.2,2.5-10.8,9.2-9.1,16.9c1,4.3,3.5,7.7,6.1,11.1c1.2,1.5,2.3,3.1,3.4,4.7c3.9,5.8,3.6,11.3-1,16.6c-1.7,2-3.8,3.5-6,4.8
			c-0.7,0.4-1.1,0.2-1.2-0.5c-0.2-1-0.2-1.9,0.7-2.7c1.5-1.3,2-3.2,1.6-5.1c-0.4-2.4-1.6-4.4-3-6.3c-2.3,1.6-3.8,1.2-5-1.3
			c-1.1-2.3-0.5-4.9,1.2-6.1c0.4-0.3,0.8-0.6,1.3-0.1c3.4,2.9,6.5,6,7.6,10.6c0.6,2.7,0.2,5.2-1.1,7.6c-0.1,0.1-0.1,0.3-0.1,0.5
			c2.4-1.4,4-3.4,4.6-6.1c0.8-3.3,0-6.4-1.9-9.1c-2-2.9-4.1-5.7-6.2-8.5c-2.3-3.2-4-6.6-4.1-10.6c-0.3-7.6,4.8-14.5,12.4-17
			c11.2-3.7,22.3,3.2,23.8,14.9c0.5,4.1-0.2,8-3.3,11.1C45.9,94.8,45.3,95.3,44.2,95.8L44.2,95.8z"/>
		<path class="st0" d="M136.7,140.1c-0.9,6.5-4,11.4-9.3,14.8c-1.2,0.8-2.4,1.3-3.8,1.5c-2,0.3-3.2-0.8-3.4-2.7
			c-0.2-2.5,0.6-4.8,1.1-7.1c0.3-1.2,0.6-2.5,0.8-3.8c0.1-0.6,0.1-1.3-0.5-1.7c-0.6-0.4-1.1,0-1.6,0.3c-2,1.2-3.4,3.1-4.7,5
			c0-2.2-0.6-4.6,1.1-6.6c1.2-1.4,2.3-2.7,3.9-3.6c2.1-1.2,3.3-0.5,3.4,1.9c0,2.4-0.6,4.8-1.1,7.1c-0.2,1-0.4,1.9-0.4,3
			c0.1,1.7,1,2.5,2.7,2.3c1.4-0.2,2.6-0.8,3.8-1.6c3-1.9,5.4-4.5,7.2-7.5C136.1,141.1,136.3,140.7,136.7,140.1L136.7,140.1z"/>
		<path class="st0" d="M100.7,114.1c0,3.3-2.7,5.9-5.9,5.8c-3.2,0-5.8-2.7-5.8-5.8c0-3.2,2.6-5.9,5.9-5.9
			C98.2,108.2,100.7,110.8,100.7,114.1L100.7,114.1z"/>
		<path class="st0" d="M87.5,117.6c0,3.3-2.7,5.8-6,5.7c-3.2-0.1-5.8-2.7-5.7-5.9c0-3.2,2.8-5.9,5.9-5.8
			C85,111.6,87.5,114.3,87.5,117.6z"/>
		<path class="st0" d="M138.4,136.8c-3.2,0-5.8-2.5-5.9-5.7c-0.1-3.3,2.6-6,5.8-6c3.2,0,5.8,2.6,5.9,5.8
			C144.3,134.1,141.6,136.8,138.4,136.8L138.4,136.8z"/>
		<path class="st0" d="M87.1,174.5c3.4-1.5,4.6-5.1,3-8.4c-1-2.1-2.3-4.1-3.5-6.1c-1.4-2.4-1.8-5-1.4-7.7c0.4-3.1,2.7-6.2,5.1-7
			c-4,3.8-4.7,8.9-2,13.8c0.9,1.6,1.9,3.2,2.8,4.9c2.3,4.2,1.4,7.9-2.5,10.7c-0.7,0.5-1.5,0.9-2.2,1.3c-0.4,0.2-0.9,0.7-1.2,0.2
			c-0.3-0.5-0.2-1.1,0.2-1.6c1.8-2,1.9-3.7,0.6-6.2c-0.3-0.5-0.5-0.9-1.2-0.4c-0.6,0.3-1.2,0.1-1.6-0.5c-0.6-0.9-0.9-2-0.4-3.1
			c0.6-1.6,1.6-1.8,2.7-0.5c1.4,1.7,2.7,3.4,3,5.7C88.8,171.3,88.3,172.9,87.1,174.5L87.1,174.5z"/>
		<path class="st0" d="M50,43.6c1.1,1.6,2.2,1.8,3.6,0.5c1.1-1,2-2.3,3.1-3.4c0.6-0.7,1.3-1.8,2.3-1.4c1,0.4,1,1.6,1.1,2.6
			c0.1,1.9,0,3.8,0.4,5.7c0.3,1.5-0.2,2.9-1.4,3.9c-1.6,1.4-3.5,2.4-5.8,3.1c0.3-0.4,0.5-0.6,0.6-0.8c0.2-0.2,0.4-0.4,0.6-0.6
			c2-1.9,3.8-4.1,4.7-6.8c0.1-0.4,0.2-0.8,0.3-1.2c0-0.3,0-0.6-0.3-0.8c-0.3-0.1-0.5,0-0.7,0.2c-0.5,0.5-1,1.1-1.5,1.7
			c-1.1,1.2-2.2,2.4-3.7,3.1c-1.5,0.7-2.5,0.3-3.1-1.2C49.6,46.8,49.3,45.3,50,43.6L50,43.6z"/>
		<path class="st0" d="M147.9,107.4c-0.1-0.9-0.1-1.9-0.3-2.8c-0.7-3.6-2.6-6.1-6.3-6.9c-0.6-0.1-1-0.4-1.1-1.1
			c-0.1-1.2-0.2-2.4-0.4-3.6c-0.2-1.1,0.2-1.3,1.2-0.9c4.7,1.5,7.6,5.3,7.8,10.2C148.8,104,148.7,105.7,147.9,107.4z"/>
		<path class="st0" d="M41.7,123.7c1.7,1.7,1.4,6-0.5,7.4c-1.7,1.2-3.9,0.7-5-1.3c-1.5-2.7-1.3-5.5-0.7-8.4c0.5-2.5,1.6-4.7,3.5-6.6
			c0.3,0.8-0.2,1.1-0.5,1.5c-1.7,2.8-2.5,5.8-1.3,9c0.5,1.3,1.4,1.8,2.5,1.6c1.1-0.2,1.9-1.2,2-2.4
			C41.6,124.3,41.6,124.1,41.7,123.7L41.7,123.7z"/>
		<path class="st0" d="M111.3,48.1c0.2,0.9-0.3,1.2-0.6,1.7c-1.6,2.8-2.5,5.8-1.3,9c0.3,0.9,1,1.7,2.1,1.6c1.1-0.1,1.8-0.7,2.1-1.7
			c0.2-0.5,0.2-1,0.3-1.6c1.9,1.9,1.2,6.5-1.2,7.6c-1.6,0.8-3.4,0.1-4.4-1.7c-1-1.9-1.2-3.9-1-5.9C107.7,53.8,108.9,50.7,111.3,48.1
			L111.3,48.1z"/>
		<path class="st0" d="M57.8,113.4c1.5,1.5,1.4,6.1-0.9,7.4c-1.6,0.9-3.5,0.4-4.5-1.2c-0.8-1.2-1.1-2.5-1.2-3.9
			c-0.2-3.5,0.6-6.8,2.5-9.7c0.3-0.4,0.6-0.8,1-1.2c0.1-0.1,0.2-0.2,0.4-0.3c0.3,0.7-0.2,1-0.5,1.4c-1.5,2.5-2.3,5.2-1.7,8.1
			c0.1,0.6,0.3,1.1,0.7,1.6c0.5,0.9,1.3,1.2,2.2,0.9c1-0.2,1.6-1,1.8-2C57.7,114.2,57.5,113.7,57.8,113.4L57.8,113.4z"/>
		<path class="st0" d="M111.5,159.5c1.5,2.1,1.3,5.5-0.3,7.1c-1.5,1.4-3.8,1.1-5.1-0.7c-1-1.4-1.2-3-1.3-4.6c-0.1-3.6,0.8-6.8,3-9.7
			c0.2-0.2,0.4-0.4,0.6-0.7c0.1-0.1,0.2-0.1,0.3-0.2c0.2,0.6-0.2,1-0.5,1.3c-1.5,2.3-2.2,4.8-1.8,7.5c0.1,0.6,0.2,1.1,0.4,1.7
			c0.4,1,1,1.8,2.2,1.7c1.1-0.1,2-0.9,2.2-2.2C111.4,160.3,111.4,160,111.5,159.5L111.5,159.5z"/>
		<path class="st0" d="M103.8,95.5c1.5,2,1.3,5.5-0.3,7c-1.3,1.3-3.3,1.3-4.6,0c-1-1-1.5-2.2-1.6-3.6c-0.6-4.3,0.3-8.3,3.1-11.7
			c0.2-0.2,0.3-0.5,0.7-0.5c0.2,0.5-0.2,0.8-0.5,1.2c-1.5,2.3-2.2,4.8-1.9,7.5c0.2,2,1.2,3.4,2.5,3.4
			C102.6,98.9,103.5,97.8,103.8,95.5z"/>
		<path class="st0" d="M73.8,123.2c0.2,0.8-0.3,1.1-0.5,1.5c-1.5,2.4-2.2,5-1.8,7.8c0.3,2,1.3,3.1,2.6,3c1.4-0.1,2.2-1.2,2.4-3.2
			c0.1,0,0.2-0.1,0.2,0c1.2,1.7,1.1,5.1-0.2,6.6c-1.4,1.6-3.7,1.6-5.1-0.1c-0.7-0.9-1.1-1.9-1.3-3.1c-0.7-4.4,0.3-8.4,3-11.9
			C73.3,123.7,73.5,123.5,73.8,123.2L73.8,123.2z"/>
		<path class="st0" d="M60.8,142.2c0.2,0.6-0.3,0.9-0.6,1.4c-1.6,2.5-2.3,5.2-1.7,8.2c0.4,1.8,1.3,2.6,2.5,2.6
			c1.3-0.1,2.2-1.1,2.4-2.9c0-0.1,0.1-0.2,0.1-0.3c1.7,1.9,1.1,6.2-1,7.4c-1.5,0.9-3.4,0.4-4.5-1.2c-0.9-1.4-1.2-3-1.2-4.6
			c-0.1-3.4,0.8-6.5,2.8-9.3C59.9,142.9,60.1,142.4,60.8,142.2L60.8,142.2z"/>
		<path class="st1" d="M143,73.1c-0.2,0.3-0.5,0.6-0.7,0.9c-2.8,3.2-6.2,5.9-9.5,8.5c-3.2,2.5-6.5,4.9-9.8,7.4
			c-0.6,0.5-0.9,0.4-1.4-0.2c-2-2.3-4-4.6-6.1-6.8c-0.6-0.6-0.5-0.9,0.1-1.3c7-4.8,14.4-8.4,22.9-9.6c1.3-0.2,2.6,0,3.8,0.5
			C142.7,72.6,143,72.6,143,73.1L143,73.1z"/>
	</g>
</g>
</svg>
