<?xml version="1.0" encoding="UTF-8"?><svg id="Layer_1" xmlns="http://www.w3.org/2000/svg" viewBox="0 0 162.04 176.49"><defs><style>.cls-1{fill:#fff;}.cls-2{fill:#292d49;}</style></defs><g id="xBQSKa"><g><path class="cls-1" d="M0,103c0-2.27,0-4.54,0-6.8,.3-8.72,2.24-17,7-24.43,5.71-8.9,13.59-14.83,24.15-16.67,14.82-2.58,29.79,5.67,32.02,23.24,.86,6.77-.24,13.14-4.42,18.73-4.95,6.62-13.8,9.53-21.13,6.88-4.46-1.61-7.85-4.43-8.9-9.32-.9-4.17,2.02-7.96,5.97-7.9,2.41,.04,4.54,1.5,5.45,3.73,.98,2.42,.54,5.12-1.1,6.76-.73,.73-1.61,1.14-2.69,1.34,1.49,2.17,3.65,2.95,6.03,3.15,9.61,.79,18.88-7.2,19.84-16.77,1.28-12.85-7.65-22.84-18.57-26.02-8.32-2.42-16.22-.83-23.56,3.43-10.61,6.15-16.74,15.54-18.27,27.62-2.01,15.88,2.92,29.52,14.5,40.62,3.85,3.69,8.47,6.14,13.72,7.32,.81,.18,1.13,.22,.9-.8-.26-1.17-.32-2.39-.45-3.59-.05-.48-.14-.98,.19-1.55,.81,1.53,.98,3.11,1.36,4.62,.46,1.82,.43,1.85,2.32,1.92,6.9,.27,12.94-1.95,18.15-6.43,5.86-5.04,9.64-11.52,12.64-18.51,1.84-4.29,3.08-8.78,4.27-13.29,.66-2.5,1.56-4.92,2.89-7.15,.75-1.26,1.64-2.42,2.92-3.21,1.78-1.09,3.47-.87,4.8,.74,.79,.96,1.42,2.05,2.13,3.08,1.92,2.78,4.69,2.74,6.46-.17,1.52-2.5,1.45-5.24,.97-8-.14-.82-.35-1.63-.52-2.44-.05-.25-.06-.54,.2-.67,.26-.13,.46,.09,.64,.26,.41,.41,.85,.8,1.08,1.36,2.28,5.69,3.2,11.54,1.96,17.62-.21,1.02-.59,1.99-1.12,2.9-1.52,2.62-4.48,3.55-7.23,2.29-1.48-.68-2.63-1.76-3.57-3.06-.41-.57-.75-1.2-1.1-1.81-1.56-2.76-2.92-2.78-4.51,0-1.85,3.24-2.83,6.82-3.98,10.34-2.08,6.36-4.05,12.76-7.06,18.77-1.83,3.67-4,7.12-6.8,10.14-5.45,5.86-11.36,8.55-20.7,9.39,3.54,6.88,8.52,11.75,16.47,12.98,7.85,1.22,13.81-1.78,18.45-7.95,3.5-4.65,5.78-9.9,7.63-15.36,1.35-3.99,2.92-7.88,5.37-11.35,1.02-1.44,2.17-2.75,3.64-3.75,1.01-.69,2.1-1.18,3.35-1.23,2.37-.08,3.65,.77,4.45,3.01,.78,2.17,.93,4.48,1.47,6.7,.22,.93,.44,1.87,.8,2.75,1.41,3.44,5.15,4.27,7.95,1.78,.98-.87,1.69-1.95,2.3-3.1,.92-1.72,1.82-3.46,2.73-5.19,.14-.27,.32-.46-.13-.66-4.77-2.13-5.66-6.26-5.58-10.88,0-.41,.07-.84,.19-1.23,.82-2.64,.95-5.34,.96-8.09,.03-4.82,2.76-8.33,6.11-11.46,1.34-1.25,1.31-1.24,.36-2.78-2.63-4.22-3.22-8.6-.89-13.15,.25-.48,.29-.95,.21-1.45-.89-5.94,1.93-9.98,6.78-12.8,5.73-3.33,11.99-5.34,18.43-6.75,2.2-.48,4.42-.9,6.69-.59,2.16,.29,3.29,1.56,3.43,3.74,.14,2.18-.46,4.22-1.3,6.18-.87,2.03-1.62,4.02-1.89,6.27-.63,5.31-3.67,9.3-7.74,12.54-3,2.39-6.08,4.68-9.15,6.97-.55,.41-.68,.72-.48,1.42,1.41,4.9-.26,9.17-2.85,13.22-.17,.27-.42,.58-.79,.45-.24-.09-.33-.43-.25-.66,1.06-3.12-1.03-4.99-2.74-7.02-.19-.22-.42-.41-.6-.64-.27-.36-.49-.29-.8-.02-3.62,3.1-7.14,6.28-9.91,10.21-.5,.71-.5,1.2,.04,1.94,2.76,3.71,6.55,5.37,11.02,5.41,1.8,.01,3.59-.64,5.4-.94,1.65-.27,3.32-.24,5.13-.13-.92,3.03-1.8,5.97-2.71,8.9-.75,2.43-.77,2.43-3.27,2.36-7.15-.18-11.07,2.37-13.82,9.01-.89,2.15-1.58,4.38-2.62,6.47-.73,1.47-1.59,2.83-2.9,3.87-3.33,2.64-7.52,1.81-9.53-1.92-1.25-2.31-1.62-4.88-2.05-7.42-.17-.99-.45-1.95-.97-2.81-.98-1.65-2.41-2.09-4.16-1.29-1.49,.69-2.54,1.87-3.45,3.19-2.37,3.43-3.72,7.33-5.24,11.16-1.74,4.41-3.4,8.85-5.77,12.98-1.21,2.1-2.57,4.1-4.25,5.85-6.59,6.91-17.11,7.5-24.7,1.39-4.55-3.66-7.36-8.55-9.57-13.83-.77-1.84-1.38-3.74-2.03-5.63-.16-.47-.32-.77-.9-.84-12.56-1.55-20.44-9.32-26.12-19.87-3.98-7.39-6.04-15.38-6.81-23.72-.12-1.29-.19-2.58-.28-3.87Z"/><path class="cls-1" d="M69.69,38.24c-1.52,5.7-.54,11,2.65,15.85,2.06,3.13,4.48,6.02,6.62,9.1,3.95,5.69,3.52,11.51-1.12,16.66-1.72,1.91-3.76,3.41-5.96,4.71-.75,.44-1.09,.24-1.18-.51-.12-1.02-.23-1.97,.74-2.83,1.76-1.58,1.99-3.67,1.44-5.87-.47-1.84-1.38-3.47-2.46-5.01-.3-.43-.49-.47-.97-.15-1.59,1.08-2.85,.8-3.91-.78-1.58-2.33-1.38-5.34,.44-6.84,.67-.56,1.23-.78,2.02-.03,1.3,1.24,2.65,2.42,3.78,3.82,3.6,4.4,5.1,9.13,1.97,14.71,1.31-.56,2.1-1.38,2.82-2.25,2.82-3.4,3.15-7.76,.83-11.91-1.41-2.52-3.23-4.76-5.01-7.01-2.77-3.5-5.15-7.16-5.82-11.71-.59-3.99-.17-7.82,1.83-11.37,.38-.68,.41-1.21,.12-1.94-4.23-10.66-5.29-21.7-3.78-33.03,.08-.6-.02-1.35,.77-1.83,.21,2.18,.4,4.27,.62,6.35,.89,8.39,3.51,16.23,7.53,23.63,.27,.5,.46,.78,1.11,.41,8.69-5,21.94-.45,25.37,11.44,1.3,4.53,1.19,8.97-1.2,13.19-.45,.79-.97,1.52-1.78,2.26-.03-.9,.38-1.51,.51-2.17,1.25-6.13,.89-12.14-1.74-17.85-3.2-6.92-8.28-8.39-14.82-7.81-1.96,.17-3.82,.76-5.58,1.68-.74,.38-.88,.67-.41,1.46,3.97,6.64,8.61,12.8,13.57,18.7,6.42,7.63,12.9,15.21,19.37,22.79,.52,.61,.86,1.2,.65,2.01-.01,.04,0,.08,0,.12,.16,2.26-.09,4.43-1.06,6.54-.65,1.41-.6,3.01-.65,4.53-.21,.17-.31,0-.4-.11-8.63-10.34-17.33-20.63-25.75-31.15-4.23-5.28-7.78-11.01-10.65-17.16-.1-.23-.16-.48-.51-.6Z"/><path class="cls-1" d="M132.28,100.69c2.99,2.77,5.84,5.33,9.04,7.46,2.4,1.59,4.86,3.05,7.81,3.41,5.53,.66,9.77-2.68,10.69-8.44,.18-1.11,.33-2.23,.19-3.36-.06-.47-.04-.96,.53-1.12,.53-.15,.87,.19,1.14,.57,.19,.27,.35,.56,.35,.91,.09,5.36-.23,10.67-2.54,15.64-2.39,5.14-6.73,7.83-12,7.48-2.5-.17-4.72-1.25-6.86-2.48-4.03-2.32-7.53-5.34-10.95-8.46-.47-.43-.47-.75-.18-1.27,1.72-3.14,2.71-6.5,2.78-10.33Z"/><path class="cls-1" d="M44.2,95.75c5.31-6.57,2.54-17.8-1.38-22.68-2.74-3.39-6.15-5.29-10.59-5.13-2.22,.08-4.4,.37-6.51,1.09-7.24,2.48-10.78,9.18-9.06,16.86,.96,4.31,3.47,7.7,6.08,11.06,1.18,1.51,2.3,3.07,3.39,4.65,3.93,5.75,3.59,11.28-.98,16.58-1.71,1.98-3.81,3.48-6.03,4.82-.74,.45-1.07,.21-1.2-.54-.17-1-.23-1.91,.7-2.72,1.55-1.34,1.96-3.17,1.64-5.13-.39-2.4-1.56-4.45-3.05-6.34-2.32,1.63-3.77,1.23-4.96-1.33-1.06-2.27-.53-4.94,1.21-6.1,.42-.28,.81-.57,1.34-.12,3.39,2.91,6.5,6.03,7.58,10.58,.63,2.67,.21,5.21-1.13,7.61-.08,.13-.12,.29-.08,.5,2.39-1.36,3.97-3.39,4.65-6.05,.84-3.33,.02-6.38-1.9-9.13-2-2.87-4.13-5.66-6.2-8.48-2.31-3.15-3.99-6.56-4.13-10.55-.27-7.64,4.78-14.5,12.45-17.01,11.25-3.68,22.27,3.19,23.76,14.93,.52,4.11-.15,8.01-3.29,11.1-.59,.58-1.24,1.09-2.3,1.52Z"/><path class="cls-1" d="M136.69,140.13c-.94,6.51-4,11.39-9.31,14.84-1.17,.76-2.42,1.32-3.8,1.52-1.97,.29-3.23-.75-3.38-2.74-.18-2.46,.57-4.78,1.14-7.12,.31-1.25,.58-2.51,.8-3.78,.11-.61,.14-1.33-.47-1.71-.56-.36-1.13,.02-1.63,.32-2.01,1.23-3.39,3.05-4.74,4.97,.03-2.25-.59-4.57,1.11-6.57,1.17-1.38,2.34-2.72,3.93-3.62,2.08-1.18,3.32-.49,3.36,1.88,.04,2.44-.62,4.78-1.07,7.15-.19,.98-.42,1.95-.39,2.97,.05,1.71,.99,2.53,2.68,2.26,1.38-.22,2.62-.82,3.78-1.57,3-1.93,5.38-4.46,7.21-7.52,.21-.35,.43-.7,.78-1.28Z"/><path class="cls-1" d="M100.71,114.05c0,3.26-2.65,5.89-5.88,5.85-3.17-.03-5.79-2.65-5.83-5.82-.04-3.23,2.6-5.87,5.86-5.88,3.3,0,5.85,2.55,5.85,5.84Z"/><path class="cls-1" d="M87.46,117.55c-.04,3.26-2.66,5.78-5.97,5.73-3.18-.05-5.76-2.7-5.73-5.88,.04-3.22,2.77-5.9,5.94-5.83,3.26,.07,5.79,2.7,5.76,5.98Z"/><path class="cls-1" d="M138.37,136.82c-3.23,.03-5.84-2.5-5.88-5.69-.05-3.34,2.55-6.02,5.84-6.01,3.17,0,5.79,2.59,5.86,5.78,.07,3.21-2.57,5.89-5.82,5.92Z"/><path class="cls-1" d="M87.08,174.51c3.39-1.54,4.61-5.05,2.99-8.37-1.02-2.09-2.31-4.05-3.46-6.08-1.37-2.4-1.81-4.98-1.43-7.72,.43-3.07,2.73-6.2,5.14-6.96-4.01,3.81-4.74,8.93-1.96,13.79,.93,1.63,1.93,3.22,2.83,4.86,2.28,4.18,1.42,7.93-2.46,10.71-.71,.51-1.48,.94-2.25,1.34-.36,.18-.86,.71-1.18,.19-.29-.47-.22-1.11,.23-1.62,1.79-2,1.95-3.72,.61-6.21-.28-.53-.49-.85-1.19-.45-.59,.34-1.25,.06-1.63-.52-.62-.95-.88-1.98-.45-3.09,.62-1.62,1.56-1.79,2.65-.49,1.4,1.68,2.65,3.43,2.98,5.68,.25,1.75-.19,3.3-1.41,4.94Z"/><path class="cls-1" d="M49.98,43.61c1.09,1.61,2.24,1.79,3.64,.49,1.13-1.04,2.05-2.3,3.12-3.41,.64-.67,1.26-1.76,2.31-1.36,1.03,.4,1.02,1.64,1.07,2.62,.1,1.9,0,3.8,.42,5.71,.32,1.49-.25,2.87-1.44,3.92-1.62,1.43-3.48,2.39-5.79,3.1,.31-.38,.45-.59,.62-.77,.2-.21,.43-.39,.64-.59,2.05-1.94,3.82-4.07,4.66-6.84,.12-.4,.21-.81,.28-1.22,.05-.31-.05-.6-.34-.75-.26-.13-.51,.04-.67,.2-.52,.53-1.02,1.1-1.52,1.66-1.08,1.22-2.21,2.4-3.73,3.08-1.53,.69-2.47,.33-3.07-1.22-.57-1.46-.83-2.97-.2-4.63Z"/><path class="cls-1" d="M147.85,107.36c-.1-.93-.15-1.87-.32-2.79-.66-3.61-2.62-6.06-6.32-6.88-.64-.14-1.02-.37-1.06-1.1-.08-1.2-.22-2.41-.4-3.6-.16-1.06,.17-1.27,1.17-.95,4.68,1.48,7.63,5.28,7.82,10.19,.07,1.74-.09,3.46-.89,5.13Z"/><path class="cls-1" d="M41.66,123.69c1.65,1.67,1.4,5.97-.52,7.35-1.69,1.21-3.88,.7-4.98-1.3-1.46-2.68-1.32-5.54-.69-8.39,.54-2.47,1.61-4.69,3.48-6.55,.33,.75-.23,1.09-.48,1.52-1.66,2.84-2.52,5.81-1.34,9.04,.47,1.3,1.4,1.84,2.47,1.63,1.11-.21,1.9-1.16,2.01-2.4,.02-.25,.03-.49,.05-.91Z"/><path class="cls-1" d="M111.35,48.11c.23,.86-.3,1.2-.56,1.65-1.64,2.85-2.49,5.82-1.27,9.05,.35,.93,.99,1.68,2.14,1.59,1.05-.08,1.79-.66,2.14-1.65,.17-.48,.19-1.02,.28-1.57,1.92,1.86,1.16,6.52-1.19,7.59-1.64,.75-3.42,.07-4.41-1.72-1.04-1.86-1.17-3.89-1-5.94,.27-3.36,1.39-6.38,3.88-8.99Z"/><path class="cls-1" d="M57.83,113.37c1.55,1.49,1.42,6.08-.92,7.44-1.58,.92-3.46,.43-4.55-1.25-.77-1.18-1.1-2.53-1.2-3.9-.25-3.52,.57-6.78,2.54-9.73,.28-.41,.62-.79,.95-1.16,.1-.11,.25-.17,.39-.27,.26,.66-.25,.98-.49,1.38-1.52,2.51-2.28,5.16-1.68,8.11,.12,.58,.35,1.11,.66,1.61,.53,.86,1.3,1.15,2.25,.93,1.04-.24,1.61-.96,1.85-1.97,.09-.38-.13-.82,.19-1.18Z"/><path class="cls-1" d="M111.5,159.47c1.51,2.06,1.27,5.51-.35,7.07-1.49,1.43-3.81,1.1-5.07-.73-.96-1.39-1.25-3.01-1.28-4.63-.08-3.55,.84-6.83,3.03-9.69,.18-.23,.37-.45,.57-.66,.08-.08,.19-.13,.35-.22,.23,.63-.22,.96-.46,1.34-1.47,2.28-2.15,4.76-1.84,7.48,.06,.57,.2,1.15,.42,1.68,.39,.98,1.01,1.76,2.21,1.69,1.1-.06,2-.95,2.25-2.17,.07-.32,.1-.64,.18-1.15Z"/><path class="cls-1" d="M103.8,95.54c1.47,1.96,1.28,5.47-.28,7.04-1.28,1.27-3.3,1.26-4.6-.04-.99-.99-1.46-2.25-1.63-3.57-.55-4.31,.33-8.28,3.12-11.71,.17-.21,.31-.5,.68-.47,.21,.54-.23,.84-.46,1.2-1.47,2.28-2.16,4.76-1.92,7.47,.17,1.97,1.23,3.42,2.49,3.45,1.43,.03,2.31-1.08,2.6-3.37Z"/><path class="cls-1" d="M73.8,123.25c.17,.77-.29,1.1-.54,1.5-1.49,2.38-2.19,4.96-1.77,7.75,.3,1.99,1.35,3.11,2.6,3.02,1.36-.1,2.18-1.18,2.4-3.16,.08-.01,.2-.05,.22-.02,1.18,1.67,1.06,5.05-.24,6.6-1.38,1.65-3.73,1.62-5.11-.07-.73-.89-1.13-1.94-1.31-3.07-.67-4.38,.26-8.36,3.03-11.86,.18-.22,.41-.4,.71-.68Z"/><path class="cls-1" d="M60.78,142.19c.15,.62-.31,.94-.56,1.35-1.56,2.54-2.31,5.25-1.65,8.23,.39,1.76,1.26,2.61,2.45,2.55,1.32-.07,2.15-1.08,2.36-2.88,.01-.11,.07-.21,.12-.33,1.72,1.88,1.13,6.22-.98,7.43-1.51,.87-3.42,.35-4.47-1.24-.92-1.4-1.2-2.99-1.24-4.64-.08-3.39,.76-6.52,2.75-9.29,.32-.45,.59-.99,1.22-1.17Z"/><path class="cls-2" d="M143.01,73.05c-.23,.3-.47,.64-.74,.95-2.81,3.23-6.16,5.87-9.52,8.48-3.23,2.51-6.52,4.92-9.75,7.43-.62,.48-.91,.4-1.39-.15-1.99-2.31-4-4.59-6.06-6.84-.55-.6-.48-.92,.14-1.34,6.99-4.76,14.45-8.41,22.94-9.57,1.3-.18,2.58,0,3.81,.46,.23,.09,.6,.12,.58,.58Z"/></g></g></svg>