<?xml version="1.0" encoding="utf-8"?>
<!-- Generator: Adobe Illustrator 26.5.0, SVG Export Plug-In . SVG Version: 6.00 Build 0)  -->
<svg version="1.1" id="Layer_1" xmlns="http://www.w3.org/2000/svg" xmlns:xlink="http://www.w3.org/1999/xlink" x="0px" y="0px"
	 viewBox="0 0 112.6 106" style="enable-background:new 0 0 112.6 106;" xml:space="preserve">
<style type="text/css">
	.st0{fill:#FFFFFF;}
	.st1{fill:#3A3A68;}
</style>
<g id="xBQSKa">
	<g>
		<path class="st0" d="M14.2,61.8c0-1.2,0-2.4,0-3.6c0.2-4.6,1.2-9,3.7-12.9c3-4.7,7.2-7.9,12.8-8.9c7.9-1.4,15.8,3,17,12.3
			c0.5,3.6-0.1,7-2.3,9.9c-2.7,3.5-7.3,5-11.2,3.7c-2.4-0.8-4.2-2.3-4.7-4.9c-0.5-2.2,1.1-4.2,3.2-4.2c1.3,0,2.4,0.8,2.9,2
			c0.5,1.3,0.3,2.7-0.6,3.6c-0.4,0.4-0.8,0.6-1.4,0.7c0.8,1.2,2,1.5,3.2,1.7c5.1,0.4,10-3.8,10.5-8.9c0.7-6.8-4.1-12.1-9.9-13.8
			c-4.4-1.3-8.6-0.4-12.5,1.8c-5.6,3.3-8.8,8.3-9.7,14.7c-1.1,8.4,1.5,15.7,7.7,21.5c2.1,2,4.5,3.2,7.3,3.9c0.4,0.1,0.6,0.1,0.5-0.4
			c-0.2-0.6-0.2-1.3-0.3-1.9c0-0.3-0.1-0.5,0.1-0.8c0.4,0.8,0.5,1.6,0.7,2.4c0.3,1,0.2,1,1.2,1c3.7,0.2,6.8-1,9.6-3.4
			c3.1-2.7,5.1-6.1,6.7-9.8c1-2.3,1.6-4.7,2.3-7.1c0.4-1.3,0.8-2.6,1.5-3.8c0.4-0.7,0.8-1.3,1.5-1.7c1-0.6,1.9-0.5,2.5,0.4
			c0.4,0.5,0.7,1.1,1.1,1.6c1,1.5,2.5,1.4,3.4-0.1c0.8-1.3,0.7-2.8,0.5-4.2c-0.1-0.4-0.2-0.8-0.3-1.3c-0.1-0.1-0.1-0.3,0.1-0.4
			c0.2-0.1,0.3,0.1,0.3,0.2c0.2,0.2,0.4,0.4,0.6,0.7c1.2,3,1.7,6.1,1.1,9.3c-0.1,0.5-0.3,1.1-0.6,1.5c-0.8,1.4-2.4,1.9-3.8,1.2
			c-0.8-0.4-1.4-1-1.9-1.6c-0.2-0.3-0.4-0.6-0.6-1c-0.8-1.5-1.5-1.5-2.4,0c-1,1.7-1.5,3.6-2.1,5.5c-1.1,3.4-2.2,6.8-3.8,10
			c-1,2-2.1,3.8-3.6,5.4c-2.9,3.1-6,4.6-11,5c1.9,3.7,4.5,6.3,8.8,6.9c4.1,0.6,7.3-1,9.8-4.2c1.9-2.4,3.1-5.3,4-8.2
			c0.7-2.1,1.5-4.2,2.9-6c0.5-0.7,1.2-1.5,1.9-2c0.5-0.4,1.1-0.6,1.8-0.6c1.3-0.1,2,0.4,2.3,1.6c0.4,1.2,0.5,2.4,0.8,3.6
			c0.1,0.5,0.2,1,0.4,1.5c0.7,1.8,2.8,2.3,4.2,1c0.5-0.5,0.9-1,1.2-1.6c0.5-0.9,1-1.9,1.4-2.8c0.1-0.2,0.2-0.3-0.1-0.4
			c-2.5-1.1-3-3.3-3-5.8c0-0.2,0.1-0.4,0.1-0.6c0.4-1.4,0.5-2.8,0.5-4.3c0-2.5,1.5-4.4,3.2-6.1c0.7-0.6,0.7-0.6,0.2-1.5
			c-1.4-2.2-1.7-4.6-0.5-7c0.1-0.3,0.2-0.5,0.1-0.7c-0.5-3.1,1-5.3,3.6-6.8c3-1.8,6.4-2.8,9.8-3.6c1.2-0.3,2.3-0.5,3.6-0.3
			c1.2,0.2,1.8,0.8,1.8,2c0.1,1.1-0.3,2.2-0.7,3.3c-0.5,1.1-0.8,2.1-1,3.3c-0.3,2.8-2,4.9-4.1,6.6c-1.6,1.3-3.2,2.5-4.9,3.7
			c-0.3,0.2-0.4,0.4-0.3,0.7c0.7,2.6-0.2,4.9-1.5,7c-0.1,0.2-0.2,0.3-0.4,0.2c-0.1-0.1-0.2-0.2-0.1-0.4c0.6-1.6-0.5-2.7-1.4-3.7
			c-0.1-0.1-0.2-0.2-0.3-0.3c-0.2-0.2-0.3-0.2-0.4,0c-1.9,1.6-3.8,3.3-5.3,5.4c-0.3,0.4-0.3,0.6,0,1c1.5,2,3.5,2.9,5.8,2.9
			c1,0,1.9-0.3,2.9-0.5c0.9-0.2,1.8-0.1,2.7-0.1c-0.5,1.6-1,3.2-1.4,4.7c-0.4,1.3-0.4,1.3-1.8,1.3c-3.8-0.1-5.9,1.3-7.3,4.8
			c-0.5,1.1-0.8,2.3-1.4,3.4c-0.4,0.8-0.8,1.5-1.5,2.1c-1.8,1.4-4,1-5-1c-0.6-1.2-0.8-2.6-1.1-3.9c-0.1-0.5-0.2-1-0.5-1.5
			c-0.5-0.8-1.3-1.1-2.2-0.7c-0.8,0.4-1.3,1-1.8,1.7c-1.3,1.8-2,3.9-2.8,5.9c-0.9,2.3-1.8,4.7-3.1,6.9c-0.6,1.1-1.4,2.2-2.2,3.1
			c-3.5,3.7-9.1,4-13.1,0.7c-2.4-2-3.9-4.6-5.1-7.3c-0.4-1-0.7-2-1.1-3C32.1,87.1,32,87,31.7,87C25,86.1,20.9,82,17.8,76.4
			c-2.1-3.9-3.2-8.2-3.6-12.6C14.2,63.1,14.2,62.4,14.2,61.8L14.2,61.8z"/>
		<path class="st0" d="M51.2,27.4c-0.8,3-0.3,5.8,1.4,8.4c1.1,1.6,2.4,3.2,3.5,4.8c2.1,3,1.9,6.1-0.6,8.9c-0.9,1-2,1.8-3.2,2.5
			c-0.4,0.2-0.6,0.1-0.6-0.3c-0.1-0.5-0.1-1.1,0.4-1.5c1-0.8,1.1-2,0.7-3.1c-0.3-1-0.7-1.9-1.3-2.7c-0.2-0.2-0.3-0.3-0.5-0.1
			c-0.8,0.6-1.5,0.4-2.1-0.4c-0.8-1.2-0.7-2.8,0.2-3.6c0.4-0.3,0.6-0.4,1.1,0c0.7,0.6,1.4,1.3,2,2c1.9,2.3,2.7,4.8,1.1,7.8
			c0.7-0.3,1.1-0.7,1.5-1.2c1.5-1.8,1.7-4.1,0.4-6.3c-0.7-1.3-1.7-2.5-2.7-3.7c-1.5-1.9-2.8-3.8-3.1-6.2c-0.3-2.1-0.1-4.1,1-6
			c0.2-0.4,0.2-0.6,0.1-1c-2.2-5.7-2.8-11.5-2-17.5c0.1-0.3,0-0.7,0.4-1c0.1,1.2,0.2,2.3,0.3,3.3c0.5,4.5,1.9,8.6,4,12.5
			c0.2,0.3,0.3,0.4,0.6,0.2c4.6-2.7,11.6-0.3,13.5,6c0.7,2.4,0.6,4.8-0.6,7c-0.2,0.4-0.5,0.8-1,1.2c0-0.5,0.2-0.8,0.3-1.2
			c0.6-3.2,0.5-6.4-0.9-9.4c-1.7-3.7-4.4-4.5-7.9-4.1c-1.1,0.1-2,0.4-3,0.9c-0.4,0.2-0.5,0.4-0.2,0.8c2.1,3.5,4.6,6.8,7.2,9.9
			c3.4,4,6.8,8.1,10.3,12.1c0.3,0.3,0.5,0.6,0.4,1.1v0.1c0.1,1.2-0.1,2.3-0.6,3.4c-0.4,0.7-0.3,1.6-0.4,2.4c-0.1,0.1-0.2,0-0.2-0.1
			c-4.5-5.5-9.1-11-13.5-16.6C54.9,34,53,31,51.4,27.7C51.4,27.6,51.3,27.5,51.2,27.4L51.2,27.4z"/>
		<path class="st0" d="M84.4,60.5c1.6,1.5,3.1,2.8,4.8,4c1.3,0.8,2.6,1.6,4.1,1.8c2.9,0.4,5.2-1.4,5.7-4.5c0.1-0.6,0.2-1.2,0.1-1.8
			c-0.1-0.3,0-0.5,0.3-0.6c0.3-0.1,0.5,0.1,0.6,0.3c0.1,0.2,0.2,0.3,0.2,0.5c0.1,2.9-0.1,5.7-1.3,8.3c-1.3,2.7-3.6,4.1-6.4,4
			c-1.3-0.1-2.5-0.6-3.7-1.3c-2.1-1.2-4-2.8-5.8-4.5c-0.3-0.2-0.3-0.4-0.1-0.7C83.8,64.4,84.3,62.6,84.4,60.5L84.4,60.5z"/>
		<path class="st0" d="M37.6,57.9c2.8-3.5,1.3-9.4-0.7-12c-1.4-1.8-3.3-2.8-5.6-2.7c-1.2,0-2.3,0.2-3.4,0.5c-3.8,1.3-5.7,4.9-4.8,9
			c0.5,2.3,1.9,4.1,3.2,5.9c0.6,0.8,1.2,1.6,1.8,2.5c2.1,3.1,1.9,6-0.5,8.8c-0.9,1.1-2,1.9-3.2,2.5c-0.4,0.2-0.6,0.1-0.6-0.3
			c-0.1-0.5-0.1-1,0.4-1.4c0.8-0.7,1.1-1.7,0.8-2.7c-0.2-1.3-0.8-2.3-1.6-3.3c-1.2,0.8-2,0.6-2.7-0.7c-0.6-1.2-0.3-2.6,0.6-3.2
			c0.2-0.2,0.4-0.3,0.7-0.1c1.8,1.5,3.4,3.2,4,5.6c0.3,1.4,0.1,2.8-0.6,4c-0.1,0.1-0.1,0.2-0.1,0.3c1.3-0.7,2.1-1.8,2.4-3.2
			c0.4-1.8,0-3.4-1-4.8c-1.1-1.5-2.2-3-3.3-4.5c-1.2-1.7-2.1-3.5-2.2-5.6c-0.2-4,2.5-7.7,6.6-9c5.9-2,11.8,1.7,12.6,7.9
			c0.3,2.2-0.1,4.2-1.8,5.9C38.5,57.4,38.2,57.7,37.6,57.9L37.6,57.9z"/>
		<path class="st0" d="M86.7,81.4c-0.5,3.4-2.1,6-4.9,7.9c-0.6,0.4-1.3,0.7-2,0.8c-1.1,0.2-1.7-0.4-1.8-1.4
			c-0.1-1.3,0.3-2.5,0.6-3.8c0.2-0.6,0.3-1.3,0.4-2c0.1-0.3,0.1-0.7-0.3-0.9c-0.3-0.2-0.6,0-0.8,0.2c-1.1,0.6-1.8,1.6-2.5,2.7
			c0-1.2-0.3-2.4,0.6-3.5c0.6-0.7,1.2-1.4,2.1-1.9c1.1-0.6,1.8-0.3,1.8,1c0,1.3-0.3,2.5-0.6,3.8c-0.1,0.5-0.2,1-0.2,1.6
			c0.1,0.9,0.5,1.3,1.4,1.2c0.7-0.1,1.4-0.4,2-0.8c1.6-1,2.9-2.4,3.8-4C86.4,82,86.5,81.8,86.7,81.4L86.7,81.4z"/>
		<path class="st0" d="M67.6,67.6c0,1.8-1.4,3.1-3.1,3.1c-1.7,0-3.1-1.4-3.1-3.1c0-1.7,1.4-3.1,3.1-3.1
			C66.3,64.5,67.6,65.9,67.6,67.6L67.6,67.6z"/>
		<path class="st0" d="M60.6,69.5c0,1.8-1.4,3.1-3.2,3c-1.7-0.1-3.1-1.4-3-3.1c0-1.7,1.5-3.1,3.1-3.1C59.3,66.3,60.6,67.8,60.6,69.5
			z"/>
		<path class="st0" d="M87.6,79.7c-1.7,0-3.1-1.3-3.1-3c-0.1-1.8,1.4-3.2,3.1-3.2c1.7,0,3.1,1.4,3.1,3.1
			C90.8,78.3,89.3,79.7,87.6,79.7L87.6,79.7z"/>
		<path class="st0" d="M60.4,99.7c1.8-0.8,2.4-2.7,1.6-4.5c-0.5-1.1-1.2-2.2-1.9-3.2c-0.7-1.3-1-2.7-0.7-4.1
			c0.2-1.6,1.4-3.3,2.7-3.7c-2.1,2-2.5,4.7-1.1,7.3c0.5,0.8,1,1.7,1.5,2.6c1.2,2.2,0.7,4.2-1.3,5.7c-0.4,0.3-0.8,0.5-1.2,0.7
			c-0.2,0.1-0.5,0.4-0.6,0.1c-0.2-0.3-0.1-0.6,0.1-0.8c1-1.1,1-2,0.3-3.3c-0.2-0.3-0.3-0.5-0.6-0.2c-0.3,0.2-0.6,0.1-0.8-0.3
			c-0.3-0.5-0.5-1.1-0.2-1.6c0.3-0.8,0.8-1,1.4-0.3c0.7,0.9,1.4,1.8,1.6,3C61.3,98,61,98.8,60.4,99.7L60.4,99.7z"/>
		<path class="st0" d="M40.7,30.2c0.6,0.8,1.2,1,1.9,0.3c0.6-0.5,1.1-1.2,1.6-1.8c0.3-0.4,0.7-1,1.2-0.7c0.5,0.2,0.5,0.8,0.6,1.4
			c0.1,1,0,2,0.2,3c0.2,0.8-0.1,1.5-0.7,2.1c-0.8,0.7-1.9,1.3-3.1,1.6c0.2-0.2,0.3-0.3,0.3-0.4c0.1-0.1,0.2-0.2,0.3-0.3
			c1.1-1,2-2.2,2.5-3.6c0.1-0.2,0.1-0.4,0.2-0.6c0-0.2,0-0.3-0.2-0.4c-0.2-0.1-0.3,0-0.4,0.1c-0.3,0.3-0.5,0.6-0.8,0.9
			c-0.6,0.6-1.2,1.3-2,1.6c-0.8,0.4-1.3,0.2-1.6-0.6C40.5,31.9,40.3,31.1,40.7,30.2L40.7,30.2z"/>
		<path class="st0" d="M92.7,64.1c-0.1-0.5-0.1-1-0.2-1.5c-0.4-1.9-1.4-3.2-3.3-3.7c-0.3-0.1-0.5-0.2-0.6-0.6
			c-0.1-0.6-0.1-1.3-0.2-1.9c-0.1-0.6,0.1-0.7,0.6-0.5c2.5,0.8,4,2.8,4.1,5.4C93.1,62.3,93.1,63.2,92.7,64.1z"/>
		<path class="st0" d="M36.3,72.7c0.9,0.9,0.7,3.2-0.3,3.9C35.1,77.3,34,77,33.4,76c-0.8-1.4-0.7-2.9-0.4-4.5
			c0.3-1.3,0.8-2.5,1.9-3.5c0.2,0.4-0.1,0.6-0.3,0.8c-0.9,1.5-1.3,3.1-0.7,4.8c0.3,0.7,0.7,1,1.3,0.8c0.6-0.1,1-0.6,1.1-1.3
			C36.3,73.1,36.3,73,36.3,72.7L36.3,72.7z"/>
		<path class="st0" d="M73.2,32.6c0.1,0.5-0.2,0.6-0.3,0.9c-0.8,1.5-1.3,3.1-0.7,4.8c0.2,0.5,0.5,0.9,1.1,0.8s1-0.4,1.1-0.9
			c0.1-0.3,0.1-0.5,0.2-0.8c1,1,0.6,3.4-0.6,4c-0.8,0.4-1.8,0.1-2.3-0.9c-0.5-1-0.6-2.1-0.5-3.1C71.3,35.6,72,34,73.2,32.6
			L73.2,32.6z"/>
		<path class="st0" d="M44.9,67.3c0.8,0.8,0.7,3.2-0.5,3.9c-0.8,0.5-1.9,0.2-2.4-0.6c-0.4-0.6-0.6-1.3-0.6-2.1
			c-0.1-1.9,0.3-3.6,1.3-5.1c0.2-0.2,0.3-0.4,0.5-0.6c0.1-0.1,0.1-0.1,0.2-0.2c0.2,0.4-0.1,0.5-0.3,0.7c-0.8,1.3-1.2,2.8-0.9,4.3
			c0.1,0.3,0.2,0.6,0.4,0.8c0.3,0.5,0.7,0.6,1.2,0.5c0.5-0.1,0.8-0.5,1-1.1C44.8,67.7,44.7,67.4,44.9,67.3L44.9,67.3z"/>
		<path class="st0" d="M73.4,91.7c0.8,1.1,0.7,2.9-0.2,3.8c-0.8,0.7-2,0.6-2.7-0.4c-0.5-0.7-0.6-1.6-0.7-2.4
			c-0.1-1.9,0.4-3.6,1.6-5.1c0.1-0.1,0.2-0.2,0.3-0.4c0.1-0.1,0.1-0.1,0.2-0.1c0.1,0.3-0.1,0.5-0.3,0.7c-0.8,1.2-1.2,2.5-1,4
			c0.1,0.3,0.1,0.6,0.2,0.9c0.2,0.5,0.5,1,1.2,0.9c0.6-0.1,1.1-0.5,1.2-1.2C73.3,92.2,73.3,92,73.4,91.7L73.4,91.7z"/>
		<path class="st0" d="M69.3,57.8c0.8,1.1,0.7,2.9-0.2,3.7c-0.7,0.7-1.8,0.7-2.4,0c-0.5-0.5-0.8-1.2-0.8-1.9
			c-0.3-2.3,0.2-4.4,1.6-6.2c0.1-0.1,0.2-0.3,0.4-0.3c0.1,0.3-0.1,0.4-0.3,0.6c-0.8,1.2-1.2,2.5-1,4c0.1,1.1,0.6,1.8,1.3,1.8
			C68.6,59.6,69.1,59,69.3,57.8z"/>
		<path class="st0" d="M53.3,72.5c0.1,0.4-0.2,0.6-0.3,0.8c-0.8,1.3-1.2,2.7-1,4.1c0.2,1.1,0.7,1.6,1.4,1.6c0.7-0.1,1.2-0.6,1.3-1.7
			c0.1,0,0.1-0.1,0.1,0c0.6,0.9,0.6,2.7-0.1,3.5c-0.7,0.8-2,0.8-2.7-0.1c-0.4-0.5-0.6-1-0.7-1.6c-0.4-2.3,0.2-4.5,1.6-6.3
			C53.1,72.7,53.2,72.6,53.3,72.5L53.3,72.5z"/>
		<path class="st0" d="M46.4,82.6c0.1,0.3-0.2,0.5-0.3,0.7c-0.8,1.3-1.2,2.8-0.9,4.4c0.2,1,0.7,1.4,1.3,1.4c0.7-0.1,1.2-0.6,1.3-1.5
			c0-0.1,0.1-0.1,0.1-0.2c0.9,1,0.6,3.3-0.5,3.9c-0.8,0.5-1.8,0.2-2.4-0.6c-0.5-0.7-0.6-1.6-0.6-2.4c-0.1-1.8,0.4-3.4,1.5-4.9
			C46,82.9,46.1,82.7,46.4,82.6L46.4,82.6z"/>
		<path class="st1" d="M90.1,45.9c-0.1,0.2-0.3,0.3-0.4,0.5c-1.5,1.7-3.3,3.1-5,4.5c-1.7,1.3-3.4,2.6-5.2,3.9
			c-0.3,0.3-0.5,0.2-0.7-0.1c-1.1-1.2-2.1-2.4-3.2-3.6c-0.3-0.3-0.3-0.5,0.1-0.7c3.7-2.5,7.6-4.5,12.2-5.1c0.7-0.1,1.4,0,2,0.3
			C89.9,45.6,90.1,45.6,90.1,45.9L90.1,45.9z"/>
	</g>
</g>
</svg>
